<svg width="78" height="31" viewBox="0 0 78 31" fill="none" xmlns="http://www.w3.org/2000/svg">
<path d="M48.9435 9.9227C48.905 9.94263 48.9072 9.95568 48.9501 9.96187C49.1889 9.99589 49.5414 10.0433 49.8225 10.0316C50.2023 10.0158 50.5522 9.97263 50.8722 9.90208C51.1352 9.8439 51.4232 9.7431 51.7364 9.5997C52.3608 9.31359 52.8831 8.90298 53.3032 8.36787C53.5818 8.01349 53.8164 7.61193 54.0069 7.16317C54.0815 6.98759 54.1238 6.82884 54.1812 6.6213C54.2043 6.53769 54.2212 6.46336 54.232 6.3983C54.3443 5.71887 54.2218 5.09958 53.8647 4.54041C53.7902 4.42404 53.7063 4.32313 53.6128 4.23769C53.5008 4.13552 53.3919 4.05432 53.2861 3.99407C53.0064 3.83487 52.7497 3.7201 52.516 3.64978C52.4521 3.63053 52.326 3.59732 52.1377 3.55013C51.9994 3.51554 51.8706 3.48954 51.7515 3.47213C51.2132 3.3931 50.6666 3.38313 50.1118 3.44224C49.9537 3.45919 49.8196 3.47831 49.7094 3.49962C49.6318 3.51451 49.5002 3.54532 49.3146 3.59205C48.7151 3.74278 48.1773 4.00564 47.701 4.38063C47.4978 4.54052 47.3301 4.73031 47.1977 4.94999C47.0442 5.20472 46.9942 5.47903 47.0478 5.77293C47.0778 5.93741 47.1697 6.06821 47.3234 6.16533C47.4063 6.21756 47.4809 6.24895 47.5471 6.25948C47.8974 6.31446 48.2374 6.25112 48.5673 6.06947C48.7471 5.97074 48.8939 5.83455 49.0078 5.66092C49.0147 5.65038 49.024 5.64683 49.036 5.65027C49.0971 5.66848 49.1548 5.70318 49.2181 5.71486C49.4263 5.75335 49.6378 5.75071 49.8527 5.70696C50.1931 5.63801 50.5105 5.51809 50.8049 5.3472C50.8672 5.31124 50.8808 5.32464 50.8457 5.3874C50.6059 5.81692 50.3064 6.18103 49.9472 6.47974C49.7154 6.67284 49.4538 6.83262 49.1624 6.95907C49.027 7.01783 48.8745 7.05631 48.7003 7.10545C48.6288 7.12561 48.5658 7.13992 48.5113 7.1484C48.1186 7.2091 47.7357 7.21368 47.3626 7.16214C47.2833 7.15115 47.1965 7.12927 47.1021 7.09651C46.9809 7.05459 46.8972 7.0223 46.8509 6.99962C46.6558 6.90386 46.4939 6.77249 46.3654 6.6055C46.2385 6.44034 46.1597 6.25467 46.129 6.04851C46.097 5.83478 46.1171 5.61613 46.1895 5.39256C46.2777 5.12019 46.4261 4.86535 46.6348 4.62803C46.7402 4.50845 46.856 4.39518 46.9822 4.2882C47.2626 4.05111 47.5909 3.84494 47.967 3.6697C48.3182 3.50615 48.567 3.40455 48.7137 3.36492C48.8486 3.32873 48.9833 3.29173 49.1177 3.25394C49.296 3.20377 49.4317 3.17136 49.5249 3.1567C49.7503 3.1213 49.9737 3.0653 50.1774 3.04399C50.7341 2.98627 51.2833 2.98535 51.825 3.04124C51.9045 3.04949 52.003 3.0669 52.1205 3.09347C52.2941 3.13264 52.5655 3.178 52.7614 3.24741C52.8365 3.27398 52.9123 3.29838 52.9888 3.3206C53.0429 3.3364 53.117 3.36573 53.2111 3.40856C53.3813 3.48645 53.5414 3.56502 53.6912 3.64428C54.2368 3.93291 54.7539 4.3662 55.0869 4.89158C55.5006 5.54443 55.6203 6.25284 55.446 7.0168C55.3901 7.26236 55.284 7.54275 55.1278 7.85795C54.8623 8.39467 54.4935 8.85236 54.0214 9.23101C53.7087 9.48162 53.3709 9.69053 53.0081 9.85775C52.7989 9.95419 52.5633 10.0473 52.3013 10.1371C52.1689 10.1825 52.0187 10.2252 51.8508 10.2653C51.7003 10.301 51.5988 10.3256 51.5464 10.3392C51.4485 10.3639 51.3457 10.3836 51.2378 10.3983C50.8033 10.4571 50.5563 10.4887 50.497 10.4931C50.1797 10.5162 49.8521 10.5176 49.5143 10.4972C49.5046 10.4965 49.2563 10.4655 48.7693 10.4041C48.6268 10.386 48.4912 10.3607 48.3625 10.3282C48.1767 10.281 48.0418 10.2469 47.9577 10.2261C47.924 10.2179 47.8821 10.2035 47.832 10.1832C47.8265 10.181 47.8217 10.1774 47.8181 10.1727C47.8145 10.1681 47.8122 10.1625 47.8114 10.1567C47.8107 10.1508 47.8114 10.1448 47.8137 10.1393C47.816 10.1338 47.8197 10.129 47.8244 10.1254C48.2734 9.78502 48.6731 9.39606 49.0236 8.95853C49.4176 8.46648 49.7401 8.02185 49.9912 7.62464C49.996 7.61685 50.182 7.31826 50.5492 6.72885C50.8873 6.18549 51.3051 5.66756 51.8027 5.17505C52.18 4.80167 52.6023 4.49792 53.0696 4.2638C53.0716 4.26282 53.074 4.26244 53.0762 4.2627C53.0785 4.26295 53.0807 4.26383 53.0824 4.26524C53.0842 4.26665 53.0855 4.26853 53.0862 4.27065C53.0869 4.27277 53.087 4.27504 53.0864 4.2772C53.0818 4.29553 53.0722 4.31718 53.0576 4.34215C52.8573 4.68163 52.69 5.03566 52.5555 5.40424C52.5345 5.4622 52.5021 5.54478 52.4583 5.65198C52.4112 5.76606 52.3741 5.88667 52.3349 5.98528C52.2241 6.26246 52.1403 6.46679 52.0838 6.59828C51.7468 7.37942 51.311 8.04613 50.7763 8.59843C50.4916 8.89279 50.144 9.18966 49.7335 9.48906C49.6492 9.55045 49.5677 9.60486 49.4892 9.65228C49.368 9.72535 49.2819 9.77254 49.2308 9.79384C49.1009 9.84813 49.0051 9.89108 48.9435 9.9227Z" fill="#E03024"/>
<path d="M58.2184 5.36672C58.5614 5.1687 58.7132 4.78941 58.5574 4.51955C58.4016 4.2497 57.9972 4.19147 57.6542 4.38949C57.3113 4.58752 57.1595 4.96681 57.3153 5.23666C57.4711 5.50652 57.8755 5.56475 58.2184 5.36672Z" fill="#E03024"/>
<path d="M60.7826 9.24578C60.7995 9.19515 60.7882 9.18782 60.7485 9.22379C60.6287 9.3326 60.5179 9.43064 60.4159 9.51792C60.1007 9.7873 59.7675 10.0097 59.4164 10.1852C59.3245 10.2312 59.1664 10.286 58.9422 10.3494C58.6577 10.4299 58.3834 10.4402 58.1192 10.3804C58.0068 10.3549 57.8864 10.2997 57.7581 10.2148C57.4846 10.0337 57.3389 9.6423 57.3609 9.33305C57.3659 9.25838 57.3433 9.24864 57.2929 9.30385C57.0553 9.56247 56.7686 9.80941 56.4328 10.0447C56.2986 10.1386 56.1735 10.2079 56.0576 10.2526C56.0303 10.2631 55.9576 10.2902 55.8394 10.334C55.6439 10.4061 55.4381 10.425 55.2384 10.3945C55.1072 10.3745 54.9299 10.2725 54.8635 10.1488C54.7822 9.99668 54.7605 9.84675 54.7983 9.699C54.8354 9.55399 54.8877 9.40888 54.9553 9.26365C54.9713 9.22928 55.0437 9.09402 55.1725 8.85784C55.7266 7.84145 56.224 6.92779 56.6647 6.11688C56.6723 6.10286 56.6836 6.09115 56.6972 6.08298C56.7109 6.07482 56.7265 6.0705 56.7424 6.07049H57.8413C57.8453 6.0705 57.8493 6.07155 57.8529 6.07356C57.8564 6.07557 57.8594 6.07845 57.8615 6.08194C57.8636 6.08543 57.8648 6.0894 57.8649 6.09347C57.865 6.09755 57.8641 6.10158 57.8622 6.10519C57.2025 7.34745 56.6276 8.41619 56.1377 9.31141C56.1003 9.37967 56.0868 9.45412 56.0971 9.53475C56.0991 9.55083 56.1059 9.56593 56.1166 9.57807C56.1274 9.59021 56.1415 9.59883 56.1572 9.60279C56.2232 9.61928 56.3012 9.59901 56.3593 9.56568C56.658 9.3941 56.9195 9.16927 57.1437 8.89117C57.3009 8.69623 57.4178 8.53336 57.4946 8.40256C57.6013 8.22137 57.687 8.07396 57.7516 7.96034C57.8544 7.7796 57.9445 7.63471 58.0217 7.52567C58.3288 7.09273 58.7039 6.72094 59.147 6.41032C59.374 6.25111 59.619 6.13108 59.882 6.05022C60.0787 5.98951 60.2468 5.96374 60.386 5.9729C60.5686 5.98504 60.7367 6.03601 60.8904 6.12581C61.1973 6.30483 61.1901 6.73881 61.0811 7.02263C60.9861 7.27071 60.8294 7.49509 60.6111 7.69576C60.3142 7.96881 60.0047 8.17967 59.6827 8.32834C59.3752 8.47037 59.0505 8.58376 58.7085 8.66851C58.6694 8.67836 58.6435 8.69852 58.6309 8.72899C58.5917 8.82406 58.5601 8.91946 58.536 9.01522C58.5031 9.14739 58.5104 9.27178 58.558 9.38838C58.6257 9.554 58.7326 9.62959 58.9168 9.64402C59.1126 9.6596 59.2923 9.63199 59.4559 9.56121C59.6116 9.49363 59.777 9.40441 59.9521 9.29354C60.3266 9.05576 60.6921 8.75751 61.0485 8.39878C61.3623 8.08289 61.6265 7.73722 61.8409 7.36177C62.0147 7.05756 62.1317 6.84808 62.1917 6.73331C62.24 6.64077 62.275 6.57227 62.2965 6.52783C62.2975 6.52558 62.298 6.52311 62.2978 6.52064C62.2976 6.51816 62.2969 6.51578 62.2955 6.51369C62.2942 6.5116 62.2924 6.50988 62.2902 6.50869C62.288 6.5075 62.2856 6.50688 62.2831 6.50687H61.6385C61.6338 6.50683 61.6291 6.50548 61.6251 6.50298C61.6211 6.50048 61.6179 6.49693 61.6157 6.49271C61.6136 6.48848 61.6127 6.48376 61.613 6.47904C61.6134 6.47433 61.6151 6.46981 61.6179 6.46598C61.6971 6.35763 61.7653 6.24458 61.8223 6.12684C61.8402 6.08996 61.8771 6.07163 61.933 6.07186C62.2408 6.07415 62.4358 6.07599 62.5178 6.07736C62.5258 6.07747 62.5338 6.07546 62.5408 6.07153C62.5478 6.06761 62.5536 6.06192 62.5576 6.05503L63.3194 4.73523C63.3281 4.72034 63.3411 4.71289 63.3582 4.71289H64.4306C64.4345 4.71287 64.4383 4.71385 64.4416 4.71572C64.445 4.71759 64.4478 4.7203 64.4498 4.72359C64.4518 4.72687 64.453 4.73062 64.4531 4.73446C64.4532 4.73831 64.4524 4.74212 64.4506 4.74553L63.7575 6.05571C63.7566 6.05749 63.7561 6.05949 63.7561 6.06151C63.7562 6.06352 63.7568 6.06549 63.7578 6.06722C63.7588 6.06895 63.7603 6.07038 63.7621 6.07138C63.7638 6.07237 63.7658 6.07289 63.7678 6.07289H64.577C64.5988 6.07289 64.606 6.08309 64.5987 6.10348C64.548 6.24344 64.486 6.36954 64.4124 6.48179C64.4078 6.48887 64.4014 6.49468 64.394 6.4987C64.3866 6.50271 64.3783 6.50482 64.3698 6.50481H63.5634C63.5455 6.50482 63.5279 6.5096 63.5125 6.51866C63.4971 6.52773 63.4844 6.54074 63.4758 6.55635C63.2203 7.01587 62.9807 7.45283 62.7569 7.86722C62.3696 8.58445 62.1487 8.99265 62.0945 9.09184C62.0481 9.17671 62.0165 9.27052 61.989 9.35092C61.9727 9.3988 61.9701 9.43843 61.9811 9.46981C62.0055 9.53819 62.0824 9.60657 62.1611 9.57667C62.2816 9.53086 62.3776 9.48126 62.4491 9.42789C62.68 9.25517 62.9048 9.0395 63.1236 8.78087C63.2873 8.58731 63.4265 8.40932 63.541 8.24691C63.5514 8.23236 63.565 8.22049 63.5809 8.2123C63.5967 8.20412 63.6143 8.19984 63.6321 8.19983H63.9726C63.9841 8.19983 63.9896 8.20556 63.9891 8.21701C63.9875 8.24748 63.9746 8.2815 63.9503 8.31906C63.7753 8.58983 63.6051 8.82921 63.4397 9.03721C63.1785 9.36524 62.8913 9.65032 62.5779 9.89245C62.3014 10.1059 62.004 10.2631 61.6856 10.3639C61.4797 10.4292 61.087 10.4408 60.8966 10.3178C60.7619 10.2308 60.6796 10.1176 60.6496 9.97835C60.6138 9.81342 60.6247 9.64276 60.6822 9.46637C60.7114 9.37704 60.7582 9.32 60.7826 9.24578ZM59.7308 7.04599C59.4023 7.35708 59.1384 7.71351 58.9391 8.1153C58.9378 8.11777 58.9373 8.12056 58.9376 8.12333C58.9379 8.12609 58.9391 8.1287 58.9409 8.13083C58.9427 8.13296 58.9452 8.13451 58.9479 8.1353C58.9507 8.13608 58.9536 8.13606 58.9563 8.13523C59.2552 8.04246 59.5358 7.91613 59.7981 7.75623C60.0329 7.61306 60.2378 7.43485 60.4128 7.22158C60.4795 7.14049 60.5252 7.05733 60.5822 6.95391C60.7042 6.73262 60.5829 6.51649 60.3163 6.62645C60.1738 6.68509 60.0477 6.76229 59.938 6.85804C59.866 6.92058 59.797 6.98323 59.7308 7.04599Z" fill="#E03024"/>
<path d="M59.7308 7.0458C59.797 6.98304 59.866 6.92039 59.938 6.85785C60.0477 6.7621 60.1738 6.6849 60.3163 6.62626C60.5829 6.5163 60.7042 6.73243 60.5822 6.95372C60.5252 7.05714 60.4795 7.1403 60.4128 7.22139C60.2378 7.43465 60.0329 7.61287 59.7981 7.75604C59.5358 7.91593 59.2552 8.04227 58.9563 8.13504C58.9536 8.13587 58.9506 8.13589 58.9479 8.13511C58.9452 8.13432 58.9427 8.13277 58.9409 8.13064C58.9391 8.12851 58.9379 8.1259 58.9376 8.12313C58.9373 8.12037 58.9378 8.11758 58.9391 8.11511C59.1384 7.71332 59.4023 7.35688 59.7308 7.0458Z" fill="white"/>
<path fill-rule="evenodd" clip-rule="evenodd" d="M64.413 23.8784V26.999H70.0509C71.2061 26.999 73.1888 26.1542 73.2578 23.7922V22.5853C73.2578 20.5681 71.6026 19.3784 70.0509 19.3784H67.2406V17.9302H72.8095V14.7923H67.4647C66.0854 14.7923 64.2406 15.9302 64.2406 18.0508V19.137C64.2406 21.2577 66.0682 22.3439 67.4647 22.3439C71.344 22.3611 66.5337 22.3439 70.1199 22.3439V23.8611M34.2065 23.1198C34.2065 23.1198 37.2237 22.8611 37.2237 18.9646C37.2237 15.0681 33.5686 14.7061 33.5686 14.7061H26.9824V26.999H30.2927V24.0335L33.1548 26.999H38.0513L34.2065 23.1198ZM32.9306 20.6025H30.2927V17.7922H32.9479C32.9479 17.7922 33.6892 18.0681 33.6892 19.1888C33.6892 20.3094 32.9306 20.6025 32.9306 20.6025ZM45.396 14.7923H42.034C39.6375 14.7923 38.8271 16.9646 38.8271 17.9991V26.999H42.1891V24.8439H45.3443V26.999H48.6029V17.9991C48.6029 15.3785 46.2236 14.7923 45.396 14.7923ZM45.3443 21.3612H42.1719V18.3784C42.1719 18.3784 42.1719 17.706 43.2236 17.706H44.3788C45.3098 17.706 45.327 18.3784 45.327 18.3784V21.3612H45.3443ZM50.1373 14.7923H53.6373V26.999H50.1373V14.7923ZM55.0683 14.7923V26.999H63.2579V23.8439H58.551V14.7923H55.0683Z" fill="#CC0000"/>
<path fill-rule="evenodd" clip-rule="evenodd" d="M6.20703 26.9988H19.8276C19.8276 26.9988 17.2242 15.1197 25.8447 10.3094C27.724 9.39558 33.7067 5.98182 43.4997 13.2231C43.8101 12.9645 44.1032 12.7576 44.1032 12.7576C44.1032 12.7576 35.1377 3.80943 25.1551 4.80942C20.1379 5.25769 13.9656 9.82661 10.3449 15.861C6.72427 21.8954 6.20703 26.9988 6.20703 26.9988Z" fill="#CC0000"/>
<path fill-rule="evenodd" clip-rule="evenodd" d="M6.20703 26.9988H19.8276C19.8276 26.9988 17.2242 15.1197 25.8447 10.3094C27.724 9.39558 33.7067 5.98182 43.4997 13.2231C43.8101 12.9645 44.1032 12.7576 44.1032 12.7576C44.1032 12.7576 35.1377 3.80943 25.1551 4.80942C20.1379 5.25769 13.9656 9.82661 10.3449 15.861C6.72427 21.8954 6.20703 26.9988 6.20703 26.9988Z" fill="#CC0000"/>
<path fill-rule="evenodd" clip-rule="evenodd" d="M6.20703 26.9991H19.8276C19.8276 26.9991 17.2242 15.1199 25.8447 10.3096C27.724 9.39585 33.7067 5.9821 43.4997 13.2234C43.8101 12.9648 44.1032 12.7579 44.1032 12.7579C44.1032 12.7579 35.1377 3.80971 25.1551 4.8097C20.1207 5.25797 13.9483 9.82688 10.3277 15.8613C6.70703 21.8957 6.20703 26.9991 6.20703 26.9991ZM34.586 5.7752L34.655 4.62004C34.4998 4.53384 34.0688 4.32694 32.9826 4.0166L32.9136 5.15452C33.4826 5.34417 34.0343 5.55107 34.586 5.7752Z" fill="#CC0000"/>
<path fill-rule="evenodd" clip-rule="evenodd" d="M32.948 9.43096L32.879 10.5172C33.4479 10.5344 34.0169 10.6034 34.5859 10.7241L34.6548 9.6551C34.0686 9.53441 33.4997 9.46544 32.948 9.43096ZM26.5687 4.05171H26.7411L26.3963 3C25.8618 3 25.3101 3.03448 24.7412 3.10345L25.0687 4.12068C25.5687 4.06895 26.0687 4.05171 26.5687 4.05171ZM27.3963 10.3965L27.7928 11.5861C28.2928 11.3447 28.7928 11.1378 29.2928 10.9827L28.9135 9.84475C28.3273 10.0172 27.8273 10.2068 27.3963 10.3965ZM19.5688 5.86204L18.7929 4.67239C18.3619 4.89653 17.9136 5.13791 17.4481 5.41377L18.2412 6.62065C18.6895 6.34479 19.1205 6.08617 19.5688 5.86204ZM23.1032 13.6206L23.9308 14.8619C24.2239 14.4309 24.5687 14.0344 24.948 13.6378L24.1722 12.4654C23.7756 12.8275 23.4136 13.224 23.1032 13.6206ZM20.6033 19.1722L21.9998 20.2757C22.0688 19.6033 22.1895 18.9309 22.3619 18.2584L21.1205 17.2757C20.8964 17.9136 20.7412 18.5515 20.6033 19.1722ZM13.0516 10.9827L11.8275 9.91371C11.3792 10.3447 10.9482 10.7758 10.5517 11.2068L11.8792 12.3447C12.2413 11.8792 12.6378 11.4137 13.0516 10.9827ZM7.84479 18.6895L5.86206 17.9653C5.53448 18.7067 5.17241 19.5688 5 20.0343L6.98274 20.7584C7.20687 20.1722 7.56894 19.3274 7.84479 18.6895ZM20.3447 23.5515C20.3791 24.4653 20.4653 25.2066 20.5515 25.7239L22.6205 26.4653C22.4653 25.7928 22.3101 25.0342 22.2067 24.2239L20.3447 23.5515Z" fill="#CC0000"/>
</svg>
