<svg width="124" height="31" viewBox="0 0 124 31" fill="none" xmlns="http://www.w3.org/2000/svg">
<path d="M33.0006 23.8746C31.7282 23.8746 30.7393 23.5261 30.0339 22.8292C29.3424 22.1184 28.9966 21.1218 28.9966 19.8395V14.8217H27.0465V12.3756H27.254C27.8072 12.3756 28.236 12.2292 28.5402 11.9365C28.8445 11.6438 28.9966 11.2187 28.9966 10.6612V9.7831H31.7144V12.3756H34.3076V14.8217H31.7144V19.6931C31.7144 20.2646 31.8665 20.7036 32.1708 21.0103C32.4751 21.3169 32.9591 21.4702 33.623 21.4702C33.8305 21.4702 34.0725 21.4493 34.3491 21.4075V23.7491C34.1555 23.777 33.9342 23.8049 33.6852 23.8327C33.4363 23.8606 33.2081 23.8746 33.0006 23.8746Z" fill="black"/>
<path d="M39.8081 24C38.6325 24 37.692 23.7073 36.9866 23.1219C36.2812 22.5365 35.9286 21.742 35.9286 20.7385C35.9286 19.7907 36.2467 19.0032 36.8829 18.376C37.5191 17.7487 38.5011 17.3236 39.8288 17.1006L43.1897 16.557V16.1807C43.1897 15.6929 42.996 15.2887 42.6088 14.9681C42.2354 14.6336 41.7374 14.4663 41.1151 14.4663C40.5203 14.4663 40.0017 14.6266 39.5591 14.9472C39.1165 15.2538 38.7915 15.665 38.5841 16.1807L36.3642 15.0935C36.6962 14.2015 37.3047 13.4837 38.1899 12.9401C39.075 12.3965 40.0847 12.1247 41.2188 12.1247C42.1455 12.1247 42.9545 12.2989 43.6461 12.6474C44.3514 12.9958 44.9047 13.4767 45.3058 14.09C45.7069 14.6893 45.9074 15.3862 45.9074 16.1807V23.7491H43.3349V22.5574C42.4497 23.5191 41.2741 24 39.8081 24ZM38.75 20.6339C38.75 21.0242 38.8952 21.3378 39.1857 21.5748C39.4761 21.7978 39.8496 21.9093 40.306 21.9093C41.1635 21.9093 41.855 21.6445 42.3806 21.1148C42.92 20.5712 43.1897 19.9022 43.1897 19.1077V18.6478L40.3475 19.1286C39.2825 19.3238 38.75 19.8255 38.75 20.6339Z" fill="black"/>
<path d="M48.4193 11.1003V8.17325H51.137V11.1003H48.4193ZM48.4193 23.7491V12.3756H51.137V23.7491H48.4193Z" fill="black"/>
<path d="M53.6463 23.7491V7.92236H56.364V23.7491H53.6463Z" fill="black"/>
<path d="M61.7155 23.7491L57.836 12.3756H60.699L63.0433 19.5468L65.5743 12.3756H67.9808L70.4703 19.5468L72.8354 12.3756H75.6984L71.8188 23.7491H69.3916L66.7776 16.0762L64.1221 23.7491H61.7155Z" fill="black"/>
<path d="M77.1882 11.1003V8.17325H79.9059V11.1003H77.1882ZM77.1882 23.7491V12.3756H79.9059V23.7491H77.1882Z" fill="black"/>
<path d="M82.4152 23.7491V12.3756H84.9669V13.7764C85.2712 13.2328 85.7 12.8216 86.2532 12.5429C86.8064 12.2641 87.4426 12.1247 88.1618 12.1247C88.9917 12.1247 89.7247 12.3129 90.3609 12.6892C90.9971 13.0516 91.495 13.5534 91.8546 14.1945C92.228 14.8357 92.4148 15.5814 92.4148 16.4316V23.7491H89.697V17.0797C89.697 16.3271 89.4827 15.7347 89.0539 15.3026C88.639 14.8566 88.0927 14.6336 87.415 14.6336C86.7373 14.6336 86.1841 14.8566 85.7553 15.3026C85.3404 15.7486 85.1329 16.341 85.1329 17.0797V23.7491H82.4152Z" fill="black"/>
<path d="M99.9616 24C98.869 24 97.887 23.7421 97.0157 23.2264C96.1582 22.6968 95.4805 21.9859 94.9826 21.0939C94.4985 20.1879 94.2565 19.1774 94.2565 18.0624C94.2565 16.9473 94.5054 15.9438 95.0033 15.0517C95.5012 14.1597 96.1789 13.4488 97.0364 12.9192C97.8939 12.3895 98.8621 12.1247 99.9409 12.1247C100.66 12.1247 101.31 12.2502 101.891 12.501C102.486 12.738 102.991 13.0795 103.405 13.5255V7.92236H106.123V23.7491H103.551V22.4738C103.15 22.9755 102.631 23.3588 101.995 23.6237C101.372 23.8746 100.695 24 99.9616 24ZM100.252 21.4911C100.861 21.4911 101.4 21.3448 101.87 21.0521C102.354 20.7594 102.728 20.3552 102.991 19.8395C103.267 19.3238 103.405 18.7314 103.405 18.0624C103.405 17.4073 103.267 16.8219 102.991 16.3062C102.728 15.7904 102.354 15.3862 101.87 15.0935C101.4 14.7869 100.861 14.6336 100.252 14.6336C99.6435 14.6336 99.0972 14.7869 98.6131 15.0935C98.1291 15.3862 97.7487 15.7904 97.4721 16.3062C97.2093 16.8219 97.0779 17.4073 97.0779 18.0624C97.0779 18.7314 97.2093 19.3238 97.4721 19.8395C97.7487 20.3552 98.1291 20.7594 98.6131 21.0521C99.0972 21.3448 99.6435 21.4911 100.252 21.4911Z" fill="black"/>
<path d="M107.88 10.2756V5H108.917V10.2756H107.88Z" fill="#5479FF"/>
<path d="M109.676 6.12899V5.08363H110.714V6.12899H109.676ZM109.676 10.2756V6.47047H110.714V10.2756H109.676Z" fill="#5479FF"/>
<path d="M113.291 10.3174C112.835 10.3174 112.48 10.1943 112.226 9.94804C111.977 9.69715 111.853 9.3487 111.853 8.90268V7.37645H111.217V6.47047H111.251C111.652 6.47047 111.853 6.27534 111.853 5.88507V5.60631H112.89V6.47047H113.775V7.37645H112.89V8.83299C112.89 9.21861 113.105 9.41142 113.533 9.41142C113.598 9.41142 113.679 9.40445 113.775 9.39051V10.2756C113.706 10.2849 113.628 10.2942 113.54 10.3035C113.453 10.3128 113.37 10.3174 113.291 10.3174Z" fill="#5479FF"/>
<path d="M116.202 10.3592C115.801 10.3592 115.453 10.2709 115.158 10.0944C114.863 9.91319 114.635 9.6716 114.473 9.36961C114.312 9.06761 114.231 8.7331 114.231 8.36606C114.231 7.98508 114.314 7.64592 114.48 7.34858C114.651 7.05123 114.879 6.8166 115.165 6.6447C115.451 6.4728 115.773 6.38684 116.133 6.38684C116.534 6.38684 116.873 6.47047 117.149 6.63773C117.426 6.80499 117.636 7.03032 117.779 7.31373C117.926 7.59249 118 7.90842 118 8.26152C118 8.33586 117.995 8.4102 117.986 8.48453C117.982 8.55422 117.97 8.61462 117.952 8.66573H115.31C115.338 8.90268 115.432 9.09317 115.593 9.23719C115.755 9.38122 115.962 9.45323 116.216 9.45323C116.4 9.45323 116.557 9.41607 116.686 9.34173C116.82 9.26739 116.924 9.16518 116.997 9.03509L117.827 9.43233C117.712 9.71109 117.509 9.93642 117.219 10.1083C116.928 10.2756 116.589 10.3592 116.202 10.3592ZM116.133 7.22313C115.93 7.22313 115.757 7.28121 115.614 7.39736C115.476 7.51351 115.381 7.68077 115.331 7.89913H116.9C116.877 7.69935 116.797 7.53674 116.658 7.4113C116.52 7.28585 116.345 7.22313 116.133 7.22313Z" fill="#5479FF"/>
<path fill-rule="evenodd" clip-rule="evenodd" d="M13.6817 10.2756C11.0997 10.2756 9.48641 11.5662 8.84064 14.1475C9.80892 12.8569 10.9385 12.373 12.2292 12.6955C12.9657 12.8794 13.4923 13.4137 14.0747 14.0052C15.0241 14.9684 16.1229 16.0831 18.5223 16.0831C21.1039 16.0831 22.7176 14.7925 23.3629 12.2116C22.395 13.5022 21.2655 13.9861 19.9747 13.6633C19.2379 13.4793 18.7113 12.945 18.1288 12.3539C17.1795 11.3899 16.0811 10.2756 13.6817 10.2756ZM8.84064 16.0831C6.25907 16.0831 4.64539 17.3738 4 19.9551C4.96828 18.6644 6.09781 18.1805 7.38822 18.503C8.12506 18.687 8.65169 19.2212 9.2341 19.8128C10.1834 20.776 11.2818 21.8907 13.6817 21.8907C16.2632 21.8907 17.8769 20.6004 18.5223 18.0191C17.554 19.3098 16.4245 19.7937 15.1337 19.4712C14.3972 19.2869 13.8706 18.7526 13.2882 18.1615C12.3389 17.1982 11.2401 16.0831 8.84064 16.0831Z" fill="#5479FF"/>
</svg>
